<svg width="18" height="18" viewBox="0 0 18 18" fill="none" xmlns="http://www.w3.org/2000/svg">
<g clip-path="url(#clip0_374_1094)">
<path d="M10.2574 13.0864C10.2574 13.3351 10.1837 13.5782 10.0455 13.7849C9.90737 13.9917 9.71099 14.1529 9.48124 14.248C9.25149 14.3432 8.99868 14.3681 8.75478 14.3196C8.51087 14.2711 8.28684 14.1513 8.11099 13.9755C7.93515 13.7996 7.8154 13.5756 7.76688 13.3317C7.71837 13.0878 7.74327 12.835 7.83843 12.6052C7.9336 12.3755 8.09476 12.1791 8.30153 12.0409C8.5083 11.9028 8.75139 11.829 9.00007 11.829C9.33355 11.829 9.65336 11.9615 9.88916 12.1973C10.125 12.4331 10.2574 12.7529 10.2574 13.0864ZM17.4872 8.99999C17.4872 10.6786 16.9894 12.3195 16.0569 13.7152C15.1243 15.1109 13.7988 16.1987 12.248 16.8411C10.6971 17.4835 8.99066 17.6515 7.34432 17.324C5.69798 16.9966 4.18571 16.1883 2.99877 15.0013C1.81182 13.8144 1.0035 12.3021 0.676021 10.6558C0.348543 9.00941 0.516617 7.30293 1.15899 5.75211C1.80136 4.20129 2.88918 2.87578 4.28488 1.9432C5.68058 1.01062 7.32148 0.512863 9.00007 0.512863C11.2502 0.515359 13.4075 1.41034 14.9986 3.00144C16.5897 4.59255 17.4847 6.74983 17.4872 8.99999ZM15.6012 8.99999C15.6012 7.69442 15.214 6.41816 14.4887 5.33262C13.7634 4.24707 12.7324 3.40099 11.5262 2.90137C10.32 2.40175 8.99275 2.27103 7.71226 2.52573C6.43177 2.78044 5.25557 3.40913 4.33239 4.33231C3.40921 5.25549 2.78052 6.43169 2.52581 7.71218C2.27111 8.99267 2.40183 10.3199 2.90145 11.5261C3.40107 12.7323 4.24715 13.7633 5.3327 14.4886C6.41824 15.2139 7.6945 15.6011 9.00007 15.6011C10.7502 15.5992 12.4281 14.9032 13.6657 13.6656C14.9032 12.4281 15.5993 10.7501 15.6012 8.99999ZM9.00007 3.97058C7.09361 3.97058 5.54235 5.38039 5.54235 7.11397V7.4283C5.54235 7.67841 5.64171 7.91827 5.81856 8.09512C5.99541 8.27197 6.23527 8.37132 6.48537 8.37132C6.73547 8.37132 6.97533 8.27197 7.15218 8.09512C7.32903 7.91827 7.42838 7.67841 7.42838 7.4283V7.11397C7.42838 6.42085 8.13564 5.85661 9.00007 5.85661C9.8645 5.85661 10.5718 6.42085 10.5718 7.11397C10.5718 7.80708 9.8645 8.37132 9.00007 8.37132C8.74997 8.37132 8.51011 8.47067 8.33326 8.64752C8.15641 8.82437 8.05706 9.06423 8.05706 9.31433V9.94301C8.0565 10.176 8.1422 10.4009 8.29765 10.5745C8.4531 10.748 8.66729 10.8579 8.89893 10.8829C9.13056 10.9078 9.36325 10.8462 9.55214 10.7098C9.74102 10.5734 9.87273 10.3719 9.92187 10.1442C11.382 9.77641 12.4578 8.55756 12.4578 7.11397C12.4578 5.38039 10.9065 3.97058 9.00007 3.97058Z" fill="#662080"/>
</g>
<defs>
<clipPath id="clip0_374_1094">
<rect width="18" height="18" fill="white"/>
</clipPath>
</defs>
</svg>
