<svg width="17" height="17" viewBox="0 0 17 17" fill="none" xmlns="http://www.w3.org/2000/svg">
<g clip-path="url(#clip0_374_628)">
<path d="M8.5 0C9.65104 0 10.7515 0.224516 11.8013 0.673549C12.8512 1.12258 13.7556 1.72656 14.5145 2.48549C15.2734 3.24442 15.8774 4.14881 16.3265 5.19866C16.7755 6.24851 17 7.34896 17 8.5C17 9.65104 16.7755 10.7515 16.3265 11.8013C15.8774 12.8512 15.2734 13.7556 14.5145 14.5145C13.7556 15.2734 12.8512 15.8774 11.8013 16.3265C10.7515 16.7755 9.65104 17 8.5 17C7.34896 17 6.24851 16.7755 5.19866 16.3265C4.14881 15.8774 3.24442 15.2734 2.48549 14.5145C1.72656 13.7556 1.12258 12.8512 0.673549 11.8013C0.224516 10.7515 0 9.65104 0 8.5C0 7.34896 0.224516 6.24851 0.673549 5.19866C1.12258 4.14881 1.72656 3.24442 2.48549 2.48549C3.24442 1.72656 4.14881 1.12258 5.19866 0.673549C6.24851 0.224516 7.34896 0 8.5 0ZM8.5 1.21429C7.29836 1.21429 6.15681 1.49888 5.07534 2.06808L6.91574 3.90848C7.43434 3.7314 7.96243 3.64286 8.5 3.64286C9.03757 3.64286 9.56566 3.7314 10.0843 3.90848L11.9247 2.06808C10.8432 1.49888 9.70164 1.21429 8.5 1.21429ZM2.06808 11.9247L3.90848 10.0843C3.7314 9.56566 3.64286 9.03757 3.64286 8.5C3.64286 7.96243 3.7314 7.43434 3.90848 6.91574L2.06808 5.07534C1.49888 6.15681 1.21429 7.29836 1.21429 8.5C1.21429 9.70164 1.49888 10.8432 2.06808 11.9247ZM8.5 15.7857C9.70164 15.7857 10.8432 15.5011 11.9247 14.9319L10.0843 13.0915C9.56566 13.2686 9.03757 13.3571 8.5 13.3571C7.96243 13.3571 7.43434 13.2686 6.91574 13.0915L5.07534 14.9319C6.15681 15.5011 7.29836 15.7857 8.5 15.7857ZM8.5 12.1429C9.50558 12.1429 10.3641 11.7871 11.0756 11.0756C11.7871 10.3641 12.1429 9.50558 12.1429 8.5C12.1429 7.49442 11.7871 6.63588 11.0756 5.92439C10.3641 5.21289 9.50558 4.85714 8.5 4.85714C7.49442 4.85714 6.63588 5.21289 5.92439 5.92439C5.21289 6.63588 4.85714 7.49442 4.85714 8.5C4.85714 9.50558 5.21289 10.3641 5.92439 11.0756C6.63588 11.7871 7.49442 12.1429 8.5 12.1429ZM13.0915 10.0843L14.9319 11.9247C15.5011 10.8432 15.7857 9.70164 15.7857 8.5C15.7857 7.29836 15.5011 6.15681 14.9319 5.07534L13.0915 6.91574C13.2686 7.43434 13.3571 7.96243 13.3571 8.5C13.3571 9.03757 13.2686 9.56566 13.0915 10.0843Z" fill="#662080"/>
</g>
<defs>
<clipPath id="clip0_374_628">
<rect width="17" height="17" fill="white"/>
</clipPath>
</defs>
</svg>
